<svg width="32" height="31" viewBox="0 0 32 31" fill="none" xmlns="http://www.w3.org/2000/svg">
<path d="M31.0018 14.9958C31.0018 15.6052 31.0018 16.2068 31.0018 16.8162C30.9209 17.4333 30.84 18.0505 30.7511 18.6912C30.0232 18.4568 29.3438 18.2224 28.6483 18.0271C28.3248 17.9333 28.1873 17.8083 28.3167 17.4802C28.349 17.3943 28.3328 17.2927 28.3328 17.1677C27.702 17.1677 27.0873 17.1833 26.4727 17.1599C26.1734 17.1521 25.8742 17.1052 25.5911 17.0193C23.092 16.2224 20.5929 15.4177 18.1747 14.6365C18.9835 14.6365 19.8893 14.6365 20.8518 14.6365C20.6981 13.3708 20.5525 12.1365 20.4069 10.9177C19.1533 11.0349 17.9887 11.1443 16.816 11.2458C16.816 12.3787 16.816 13.5037 16.816 14.6521C17.0506 14.6521 17.2608 14.6521 17.4792 14.6521C15.7727 14.9255 14.7051 15.8552 14.2441 17.5349C14.228 17.363 14.2118 17.2693 14.2037 17.1755C12.8611 17.1755 11.5509 17.1755 10.1599 17.1755C10.3054 18.449 10.4591 19.7068 10.6047 20.9802C10.7745 20.9568 10.8716 20.9412 10.9686 20.9333C11.8017 20.8474 12.6266 20.7458 13.4677 20.6833C14.2199 20.6287 14.2199 20.6521 14.2199 19.9177C14.2199 19.5427 14.2199 19.1599 14.2199 18.7849C14.325 18.9724 14.3816 19.1599 14.4463 19.3396C15.1095 21.2693 15.7646 23.2068 16.4521 25.1287C16.6947 25.8162 16.8564 26.488 16.7998 27.2146C16.7837 27.449 16.7998 27.6912 16.7998 27.9802C17.002 27.8396 17.1476 27.738 17.3094 27.6287C17.6652 28.6599 18.0049 29.6599 18.3527 30.6677C18.2799 30.6834 18.2475 30.6912 18.2233 30.699C17.6248 30.7771 17.0263 30.8552 16.4278 30.9333C15.8051 30.9333 15.1742 30.9333 14.5515 30.9333C14.4544 30.9177 14.3574 30.8943 14.2603 30.8787C13.7104 30.8083 13.1604 30.7615 12.6104 30.6599C8.72026 29.9177 5.5499 28.0115 3.15595 24.9568C0.584078 21.6833 -0.402617 17.9724 0.147344 13.9021C0.592166 10.6208 2.05603 7.78491 4.46615 5.41772C6.77923 3.14429 9.56947 1.7146 12.8288 1.15991C13.3949 1.06616 13.9611 1.00366 14.5272 0.93335C15.1742 0.93335 15.8212 0.93335 16.4682 0.93335C16.9859 0.99585 17.5035 1.04272 18.0211 1.12866C20.9003 1.59741 23.456 2.75366 25.6558 4.61304C28.4056 6.94897 30.1202 9.85522 30.7591 13.3474C30.8643 13.8943 30.9209 14.449 31.0018 14.9958ZM7.55564 17.1833C5.93811 17.1833 4.3044 17.1833 2.65452 17.1833C2.87289 19.1833 3.53607 21.0115 4.61982 22.6443C5.80062 22.238 6.94907 21.8474 8.04899 21.4646C7.88724 20.0427 7.72548 18.6208 7.55564 17.1833ZM4.61982 9.22241C3.55225 10.863 2.8648 12.6599 2.65452 14.6365C4.32866 14.6365 5.95428 14.6365 7.55564 14.6365C7.72548 13.2068 7.88724 11.8005 8.04899 10.4021C6.94098 10.0193 5.79253 9.62085 4.61982 9.22241ZM23.4398 14.6365C25.0493 14.6365 26.683 14.6365 28.349 14.6365C28.1306 12.6521 27.4513 10.8552 26.3837 9.22241C25.2029 9.62866 24.0545 10.0271 22.9545 10.4021C23.1163 11.8162 23.2781 13.2146 23.4398 14.6365ZM14.1956 11.2537C13.0067 11.1443 11.8259 11.0349 10.5885 10.9177C10.4429 12.1521 10.2974 13.3865 10.1518 14.6365C11.5429 14.6365 12.8692 14.6365 14.1956 14.6365C14.1956 13.488 14.1956 12.3709 14.1956 11.2537ZM14.1956 8.74585C14.1956 7.10522 14.1956 5.51929 14.1956 3.86304C12.6185 5.08179 11.9068 6.7146 11.2841 8.48022C12.2788 8.57397 13.217 8.65991 14.1956 8.74585ZM16.816 3.87085C16.816 5.5271 16.816 7.11304 16.816 8.74585C17.7946 8.65991 18.7328 8.57397 19.7276 8.48022C19.0806 6.7146 18.3769 5.07397 16.816 3.87085ZM14.2037 23.1208C13.2251 23.2068 12.2788 23.3005 11.276 23.3865C11.923 25.1443 12.6266 26.7927 14.2037 28.0037C14.2037 26.3396 14.2037 24.7615 14.2037 23.1208ZM24.7177 7.19116C23.5288 6.04272 22.2671 5.18335 20.8922 4.5896C21.3289 5.64429 21.7737 6.7146 22.2267 7.78491C22.2509 7.8396 22.3803 7.90991 22.445 7.89429C23.181 7.67554 23.9089 7.44897 24.7177 7.19116ZM8.66365 7.94897C9.17317 6.78491 9.65843 5.68335 10.1437 4.57397C8.72835 5.19897 7.45859 6.05054 6.29397 7.19116C7.14317 7.4646 7.91959 7.7146 8.66365 7.94897ZM6.28588 24.6755C7.46668 25.8162 8.72835 26.6677 10.1356 27.2849C9.65035 26.1833 9.16509 25.074 8.65556 23.9177C7.91959 24.1521 7.14317 24.4021 6.28588 24.6755Z" fill="#3DCAB1"/>
<path d="M21.6128 30.9334C21.2003 30.7693 20.982 30.4647 20.8445 30.0584C19.5343 26.2147 18.1998 22.3709 16.8815 18.5272C16.6551 17.8631 16.9705 17.285 17.6256 17.199C17.7954 17.1756 17.9895 17.2068 18.1594 17.2615C22.187 18.5584 26.2147 19.8553 30.2504 21.1522C30.6306 21.2693 30.857 21.5193 31.0107 21.8475C31.0107 22.0037 31.0107 22.16 31.0107 22.3162C30.8327 22.7068 30.5092 22.9178 30.1049 23.0662C28.4469 23.6678 26.797 24.285 25.1471 24.91C25.0015 24.9647 24.8479 25.1131 24.7913 25.2537C24.1443 26.8397 23.5134 28.4334 22.8907 30.0272C22.737 30.4256 22.5267 30.7615 22.1062 30.9334C21.9363 30.9334 21.7746 30.9334 21.6128 30.9334Z" fill="#3DCAB1"/>
</svg>
