<svg width="31" height="30" viewBox="0 0 31 30" fill="none" xmlns="http://www.w3.org/2000/svg">
<path d="M0.999281 24.8926C0.999281 24.7012 0.999281 24.5168 0.999281 24.3254C1.01347 24.2899 1.03475 24.2616 1.04185 24.2261C1.30432 23.3043 1.93568 22.7584 2.81533 22.6946C3.60276 22.6378 4.45403 23.1342 4.75197 23.9779C4.78035 24.0488 4.91513 24.1268 5.00026 24.1268C5.68837 24.141 6.37648 24.1268 7.06459 24.141C7.25613 24.141 7.32707 24.0843 7.34835 23.8928C7.41929 23.2547 7.61792 22.6591 7.93005 22.1061C9.77448 18.7948 14.1585 18.341 16.6485 21.1985C16.8613 21.4466 17.0387 21.7161 17.2444 21.9855C17.8403 21.5388 18.4149 21.0992 19.0037 20.6738C19.1527 20.5674 19.1739 20.4682 19.1243 20.298C18.4787 18.0928 19.2803 15.7601 21.1886 14.4767C21.7278 14.1151 22.3449 13.874 22.955 13.5691C22.8415 13.3635 22.7067 13.0941 22.5648 12.8388C22.0115 11.8674 21.4582 10.896 20.9049 9.92463C20.8623 9.84664 20.841 9.74737 20.8339 9.6552C20.8197 9.49212 20.8339 9.33613 20.8268 9.17304C20.7914 8.41437 20.2593 7.77622 19.5499 7.74786C18.4645 7.70532 17.3792 7.71241 16.2938 7.74786C15.6412 7.76913 15.0949 8.35055 15.0453 9.00996C15.0098 9.46375 15.024 9.91754 15.0169 10.3642C15.0169 10.4564 15.0027 10.5557 14.9956 10.6833C14.3572 10.265 13.8393 9.78992 13.4917 9.18014C13.1512 8.58454 12.9029 7.9393 12.605 7.30825C11.9452 7.8684 11.25 8.464 10.5548 9.0596C10.5122 9.09505 10.4555 9.11632 10.4129 9.14468C10.4626 9.22977 10.4768 9.25813 10.4981 9.28649C11.1436 10.1232 11.5125 11.0662 11.5976 12.1156C11.6047 12.229 11.6969 12.3567 11.7892 12.4347C12.5553 13.0444 13.3356 13.64 14.1089 14.2498C14.2507 14.3633 14.3501 14.3845 14.5274 14.2782C15.7192 13.555 17.2799 14.342 17.4146 15.7246C17.4927 16.5188 17.1025 17.2491 16.4002 17.632C15.7334 17.9936 14.8892 17.9156 14.3004 17.4405C13.669 16.93 13.4208 16.1642 13.6549 15.3843C13.7045 15.2212 13.6832 15.129 13.5414 15.0298C13.2008 14.7816 12.8674 14.5122 12.534 14.2498C12.2077 13.9946 11.8885 13.7464 11.5409 13.477C11.2287 14.973 10.4839 16.1288 9.20696 16.9938C9.20696 16.4337 9.22115 15.9303 9.20696 15.4339C9.18568 14.6894 8.64654 14.0655 7.90877 14.0371C6.84468 13.9946 5.7735 13.9946 4.70941 14.0371C3.98583 14.0655 3.44669 14.6823 3.41831 15.4127C3.40412 15.8523 3.41122 16.299 3.41122 16.7457C3.41122 16.8166 3.39703 16.8804 3.38994 16.9867C2.41097 16.3202 1.71577 15.4694 1.3327 14.3916C1.16954 13.9307 1.0986 13.4486 0.992188 12.9735C0.992188 12.6545 0.992188 12.3354 0.992188 12.0092C1.00638 11.9667 1.03475 11.9241 1.04185 11.8816C1.42492 9.39994 3.16293 7.65569 5.62453 7.28698C5.80187 7.25862 5.83734 7.18772 5.83734 7.03172C5.83025 6.36522 5.83025 5.69163 5.83734 5.02512C5.83734 4.83368 5.79478 4.73441 5.59615 4.65642C4.28377 4.12463 3.97164 2.38038 5.02154 1.46571C5.63871 0.919745 6.34811 0.785026 7.10006 1.12537C7.85911 1.46571 8.25637 2.09676 8.24219 2.92635C8.22091 3.77011 7.77399 4.35862 6.98656 4.67769C6.83759 4.73441 6.78793 4.81241 6.79502 4.9684C6.80212 5.65617 6.80212 6.34395 6.79502 7.03172C6.79502 7.21608 6.86596 7.26571 7.03622 7.29407C7.4051 7.36498 7.78818 7.4217 8.12868 7.5706C8.6962 7.81877 9.22824 8.13075 9.80995 8.43564C10.5619 7.7904 11.3564 7.08845 12.1722 6.42904C12.4844 6.18087 12.6191 5.91143 12.6688 5.51437C13.0661 2.38747 16.2512 0.267422 19.2733 1.13955C21.3305 1.73515 22.6145 3.10361 23.104 5.19529C23.1465 5.37965 23.2246 5.47891 23.4019 5.564C24.466 6.06742 25.5301 6.57794 26.5871 7.10263C26.7644 7.18772 26.878 7.18062 27.0482 7.06718C27.8924 6.49994 29.0203 6.71974 29.6375 7.55642C30.2405 8.37182 30.0844 9.52757 29.2899 10.1728C28.5025 10.818 27.332 10.7329 26.658 9.98136C26.1473 9.41412 26.0409 8.75471 26.2608 8.01021C25.2534 7.52806 24.2532 7.03882 23.2246 6.54957C23.1394 7.71241 22.7635 8.70507 22.0683 9.58429C22.0186 9.64811 22.0115 9.78282 22.047 9.84664C22.6712 11.0237 23.2955 12.1936 23.934 13.3564C23.9765 13.4344 24.0971 13.4982 24.1893 13.5053C24.5157 13.5479 24.8491 13.5408 25.1754 13.6046C28.999 14.3278 30.7796 18.7168 28.5237 21.9075C28.1549 22.4322 27.7008 22.8789 27.1121 23.2476C27.1121 22.7584 27.1121 22.3046 27.1121 21.8579C27.105 20.9503 26.58 20.3334 25.672 20.2909C24.693 20.2413 23.707 20.2413 22.728 20.2909C21.8342 20.3405 21.3234 20.9432 21.3021 21.8437C21.295 22.2337 21.3021 22.6166 21.3021 23.0065C21.3021 23.0774 21.2879 23.1413 21.2737 23.2405C20.5431 22.7726 20.0252 22.1486 19.5783 21.4537C18.9611 21.9146 18.3723 22.3542 17.7906 22.808C17.7197 22.8647 17.6842 23.0065 17.6984 23.1058C17.7622 23.6021 17.8616 24.0914 17.9183 24.5806C17.9396 24.7579 17.9893 24.843 18.1453 24.9139C19.1952 25.4102 20.238 25.9136 21.2737 26.4241C21.444 26.5092 21.5646 26.5021 21.7278 26.3958C22.4513 25.8994 23.409 25.9916 24.0758 26.6014C24.7001 27.1686 24.8633 28.1259 24.4731 28.8845C24.1681 29.473 23.6573 29.7779 23.0401 29.941C22.8486 29.941 22.6642 29.941 22.4726 29.941C22.047 29.8134 21.6355 29.6574 21.3305 29.3029C20.8339 28.7285 20.7133 28.0762 20.9403 27.3388C19.8833 26.8283 18.8476 26.3249 17.7835 25.8144C17.4288 27.1686 16.7123 28.2535 15.4993 29.0618C15.4993 28.5796 15.4993 28.1471 15.4993 27.7217C15.4993 26.6865 14.9105 26.0838 13.8748 26.0767C13.0235 26.0696 12.1793 26.0767 11.328 26.0767C11.172 26.0767 11.0017 26.0838 10.8528 26.1193C10.1434 26.2894 9.71773 26.8354 9.70354 27.6012C9.69644 28.0691 9.70354 28.5371 9.70354 29.0476C9.59713 28.9838 9.53328 28.9483 9.47653 28.9058C8.28475 28.0195 7.57536 26.8354 7.35545 25.3677C7.32707 25.162 7.25613 25.1053 7.0575 25.1053C6.39776 25.1195 5.73803 25.1124 5.07829 25.1053C4.88676 25.1053 4.78744 25.1479 4.70941 25.3464C4.27668 26.4241 3.02105 26.8638 1.99953 26.3036C1.43911 25.9916 1.15535 25.4882 0.999281 24.8926ZM6.30554 13.0161C7.36254 13.0232 8.24219 12.1581 8.24928 11.1017C8.25637 10.0523 7.38382 9.16595 6.32683 9.15886C5.27692 9.15177 4.39728 10.0239 4.39018 11.0804C4.39018 12.151 5.24145 13.009 6.30554 13.0161ZM10.6754 23.1625C10.6683 24.219 11.5196 25.084 12.5837 25.1053C13.6336 25.1266 14.5345 24.2261 14.5345 23.1696C14.5274 22.1202 13.6549 21.2481 12.605 21.2481C11.548 21.241 10.6825 22.1061 10.6754 23.1625ZM24.2177 19.2982C25.2747 19.2911 26.1473 18.419 26.1402 17.3696C26.1331 16.3202 25.2605 15.4481 24.2106 15.441C23.1465 15.441 22.2598 16.3344 22.2811 17.3909C22.2953 18.4545 23.1536 19.3053 24.2177 19.2982ZM17.9254 6.73393C18.9824 6.73393 19.855 5.8618 19.855 4.81241C19.855 3.77011 18.9824 2.89089 17.9325 2.87671C16.8755 2.86962 15.9888 3.76302 15.9959 4.8195C16.003 5.88307 16.8684 6.74102 17.9254 6.73393Z" fill="#3DCAB1"/>
<path d="M12.0447 29.9344C11.6546 29.8351 11.2644 29.7358 10.8742 29.6366C10.7253 29.6011 10.6614 29.5231 10.6685 29.36C10.6756 28.7786 10.6685 28.1901 10.6756 27.6087C10.6827 27.24 10.8671 27.0485 11.236 27.0415C12.1511 27.0344 13.0662 27.0344 13.9814 27.0415C14.3432 27.0415 14.5347 27.2471 14.5347 27.6158C14.5418 28.1972 14.5347 28.7857 14.5418 29.3671C14.5418 29.516 14.4921 29.594 14.3503 29.6224C13.9388 29.7216 13.5344 29.828 13.123 29.9273C12.7683 29.9344 12.4065 29.9344 12.0447 29.9344Z" fill="#3DCAB1"/>
<path d="M24.2312 21.2336C24.6427 21.2336 25.0612 21.2265 25.4727 21.2336C25.9551 21.2407 26.1395 21.4251 26.1466 21.9001C26.1466 22.4461 26.1395 22.9921 26.1537 23.538C26.1537 23.7082 26.0969 23.7791 25.9338 23.8358C24.7846 24.2187 23.6424 24.2187 22.4932 23.8429C22.3159 23.7862 22.2591 23.7011 22.2662 23.5238C22.2804 22.985 22.2662 22.4532 22.2733 21.9143C22.2733 21.418 22.4507 21.2407 22.9614 21.2336C23.38 21.2265 23.8056 21.2336 24.2312 21.2336Z" fill="#3DCAB1"/>
<path d="M6.32703 14.9585C6.75267 14.9585 7.17831 14.9514 7.60394 14.9585C8.07214 14.9655 8.25658 15.1499 8.25658 15.6108C8.25658 16.1567 8.24949 16.7027 8.25658 17.2558C8.25658 17.4188 8.22111 17.5039 8.05086 17.5607C6.90164 17.9506 5.75952 17.9506 4.60321 17.5677C4.44714 17.5181 4.3762 17.4472 4.3833 17.2699C4.39748 16.7027 4.3833 16.1355 4.39039 15.5682C4.39039 15.1499 4.56774 14.9655 4.99337 14.9585C5.44029 14.9443 5.88012 14.9585 6.32703 14.9585Z" fill="#3DCAB1"/>
<path d="M17.9249 8.67698C18.3577 8.67698 18.7904 8.66989 19.2231 8.67698C19.67 8.68407 19.8474 8.87551 19.8545 9.32221C19.8545 9.87527 19.8474 10.4354 19.8616 10.9885C19.8616 11.1445 19.8119 11.2154 19.6629 11.2721C18.5066 11.6692 17.3574 11.6692 16.2011 11.2792C16.0379 11.2225 15.9883 11.1374 15.9883 10.9743C15.9954 10.4212 15.9883 9.86109 15.9954 9.30803C16.0025 8.86133 16.1727 8.68407 16.6338 8.67698C17.0595 8.66989 17.4922 8.67698 17.9249 8.67698Z" fill="#3DCAB1"/>
<path d="M5.35583 11.0593C5.37002 10.5417 5.81694 10.1092 6.33479 10.1234C6.86684 10.1376 7.29957 10.5914 7.27829 11.1231C7.257 11.662 6.81009 12.0662 6.26385 12.0449C5.746 12.0307 5.34164 11.5982 5.35583 11.0593Z" fill="#3DCAB1"/>
<path d="M11.6406 23.1624C11.6406 22.6306 12.0592 22.2123 12.5912 22.2052C13.1233 22.1981 13.5702 22.6377 13.5702 23.1695C13.5702 23.6871 13.1374 24.1196 12.6125 24.1267C12.0804 24.1409 11.6406 23.7083 11.6406 23.1624Z" fill="#3DCAB1"/>
<path d="M24.1964 18.334C23.6644 18.334 23.2458 17.9156 23.2458 17.3838C23.2458 16.845 23.6786 16.4053 24.2106 16.4124C24.7356 16.4195 25.1612 16.852 25.1683 17.3697C25.1754 17.9014 24.7356 18.334 24.1964 18.334Z" fill="#3DCAB1"/>
<path d="M17.9328 5.76925C17.3866 5.77634 16.9609 5.35092 16.9609 4.81204C16.9609 4.28735 17.3866 3.85483 17.9115 3.84774C18.4365 3.84065 18.8905 4.29444 18.8905 4.81913C18.8905 5.33674 18.4578 5.76216 17.9328 5.76925Z" fill="#3DCAB1"/>
</svg>
