<svg width="58" height="58" viewBox="0 0 58 58" fill="none" xmlns="http://www.w3.org/2000/svg">
<path d="M0 10.6433C0.253923 9.48908 0.592487 8.36306 1.34015 7.40595C2.6803 5.70284 4.42954 4.77387 6.60199 4.7035C7.53304 4.67535 8.46409 4.7035 9.45157 4.7035C9.45157 3.19745 9.45157 1.7477 9.45157 0.241645C10.961 0.241645 12.4281 0.241645 13.9658 0.241645C13.9658 1.70547 13.9658 3.1693 13.9658 4.66127C23.897 4.66127 33.7717 4.66127 43.7029 4.66127C43.7029 3.19745 43.7029 1.73362 43.7029 0.22757C45.2265 0.22757 46.6795 0.22757 48.203 0.22757C48.203 1.67732 48.203 3.14115 48.203 4.68942C49.1764 4.68942 50.0933 4.67535 50.9962 4.68942C53.2815 4.74572 55.1154 5.71692 56.4555 7.56077C57.2173 8.61642 57.6687 9.81281 57.6687 11.1218C57.6969 17.3431 57.6828 23.5643 57.6828 29.7715C57.6828 29.7997 57.6687 29.8419 57.6405 29.9263C57.5276 29.8137 57.4289 29.7293 57.316 29.6308C56.0746 28.5329 54.8332 27.4069 53.5777 26.3231C53.3097 26.0979 53.1686 25.9008 53.1686 25.5349C53.1968 24.1555 53.1827 22.762 53.1827 21.3404C36.974 21.3404 20.7794 21.3404 4.51418 21.3404C4.51418 21.5234 4.51418 21.7205 4.51418 21.9316C4.51418 31.4887 4.51418 41.0317 4.51418 50.5888C4.51418 52.3482 5.38881 53.2209 7.13805 53.2209C13.2181 53.2209 19.3122 53.2209 25.3923 53.2068C25.8014 53.2068 26.013 53.3476 26.2669 53.6572C27.3249 54.8958 28.4253 56.0922 29.4974 57.3027C29.6243 57.4435 29.7372 57.5701 29.8641 57.7109C21.9079 57.7109 13.9375 57.7109 5.98129 57.7109C5.89665 57.6827 5.81201 57.6264 5.72737 57.6124C3.86527 57.3168 2.39816 56.3737 1.28372 54.8818C0.564273 53.9669 0.239816 52.8971 0 51.7852C0 38.0618 0 24.3525 0 10.6433ZM13.9799 13.6413C12.4281 13.6413 10.961 13.6413 9.45157 13.6413C9.45157 12.1493 9.45157 10.6996 9.45157 9.1935C8.60516 9.1935 7.80107 9.1935 6.99698 9.1935C5.43113 9.1935 4.51418 10.0943 4.51418 11.6567C4.51418 13.2049 4.51418 14.7673 4.51418 16.3156C4.51418 16.4704 4.52829 16.6393 4.5424 16.7801C20.7794 16.7801 36.974 16.7801 53.1827 16.7801C53.1827 14.9503 53.1968 13.1768 53.1827 11.4033C53.1686 10.3336 52.4774 9.40463 51.4476 9.29203C50.4037 9.16535 49.3316 9.26388 48.2171 9.26388C48.2171 10.7418 48.2171 12.2056 48.2171 13.6554C46.6936 13.6554 45.2406 13.6554 43.717 13.6554C43.717 12.1493 43.717 10.6855 43.717 9.22165C33.7858 9.22165 23.9252 9.22165 14.0081 9.22165C13.9799 10.6855 13.9799 12.1493 13.9799 13.6413Z" fill="url(#paint0_linear_1047_4642)"/>
<path d="M41.3451 57.7386C39.878 57.3867 38.3404 57.2038 36.9438 56.6548C32.3168 54.8251 29.1709 51.4892 27.8731 46.6896C26.2226 40.595 27.8449 35.2886 32.5707 31.0942C36.0127 28.0539 40.1319 26.8716 44.7025 27.5894C50.176 28.448 54.14 31.4601 56.3548 36.4991C58.5978 41.6084 58.0617 46.6051 54.9018 51.2218C52.6024 54.5858 49.3578 56.6267 45.3515 57.443C44.7731 57.5697 44.1665 57.6401 43.574 57.7386C42.8404 57.7386 42.0928 57.7386 41.3451 57.7386ZM42.4737 53.2346C48.3703 53.2346 53.1807 48.4067 53.1666 42.5374C53.1525 36.6821 48.3562 31.8965 42.4878 31.8824C36.6052 31.8683 31.7666 36.668 31.7666 42.5514C31.7666 48.4349 36.5911 53.2486 42.4737 53.2346Z" fill="url(#paint1_linear_1047_4642)"/>
<path d="M8.57812 30.5036C8.57812 29.0117 8.57812 27.576 8.57812 26.084C10.0593 26.084 11.5265 26.084 13.0359 26.084C13.0359 27.5338 13.0359 28.9976 13.0359 30.5036C11.5688 30.5036 10.0876 30.5036 8.57812 30.5036Z" fill="url(#paint2_linear_1047_4642)"/>
<path d="M22.0335 30.5173C20.5382 30.5173 19.0852 30.5173 17.5898 30.5173C17.5898 29.0394 17.5898 27.5897 17.5898 26.0977C19.0428 26.0977 20.5241 26.0977 22.0335 26.0977C22.0335 27.5334 22.0335 28.9972 22.0335 30.5173Z" fill="url(#paint3_linear_1047_4642)"/>
<path d="M26.6211 30.5031C26.6211 28.997 26.6211 27.5473 26.6211 26.0694C28.1023 26.0694 29.5553 26.0694 31.0506 26.0694C31.0506 27.5332 31.0506 28.997 31.0506 30.5031C29.5976 30.5031 28.1305 30.5031 26.6211 30.5031Z" fill="url(#paint4_linear_1047_4642)"/>
<path d="M8.60547 35.0635C10.1008 35.0635 11.5538 35.0635 13.035 35.0635C13.035 36.5414 13.035 37.9912 13.035 39.4831C11.582 39.4831 10.1149 39.4831 8.60547 39.4831C8.60547 38.0334 8.60547 36.5696 8.60547 35.0635Z" fill="url(#paint5_linear_1047_4642)"/>
<path d="M17.6211 35.0635C19.1164 35.0635 20.5694 35.0635 22.0506 35.0635C22.0506 36.5414 22.0506 37.9912 22.0506 39.4831C20.5976 39.4831 19.1305 39.4831 17.6211 39.4831C17.6211 38.0334 17.6211 36.5696 17.6211 35.0635Z" fill="url(#paint6_linear_1047_4642)"/>
<path d="M13.0506 44.0576C13.0506 45.5496 13.0506 46.9994 13.0506 48.4773C11.5694 48.4773 10.1164 48.4773 8.62109 48.4773C8.62109 47.0275 8.62109 45.5496 8.62109 44.0576C10.06 44.0576 11.5271 44.0576 13.0506 44.0576Z" fill="url(#paint7_linear_1047_4642)"/>
<path d="M17.6055 48.4773C17.6055 46.9853 17.6055 45.5355 17.6055 44.0576C19.0867 44.0576 20.5397 44.0576 22.035 44.0576C22.035 45.5074 22.035 46.9712 22.035 48.4773C20.582 48.4773 19.1149 48.4773 17.6055 48.4773Z" fill="url(#paint8_linear_1047_4642)"/>
<path d="M44.6047 40.3001C45.9025 40.3001 47.1298 40.3001 48.3994 40.3001C48.3994 41.8061 48.3994 43.2699 48.3994 44.776C45.6486 44.776 42.9119 44.776 40.1328 44.776C40.1328 41.5387 40.1328 38.3295 40.1328 35.0782C41.5999 35.0782 43.067 35.0782 44.6047 35.0782C44.6047 36.8094 44.6047 38.5266 44.6047 40.3001Z" fill="url(#paint9_linear_1047_4642)"/>
<defs>
<linearGradient id="paint0_linear_1047_4642" x1="-4.29797e-07" y1="28.9692" x2="57.6863" y2="28.9692" gradientUnits="userSpaceOnUse">
<stop stop-color="#01CE87"/>
<stop offset="1" stop-color="#00BF7D"/>
</linearGradient>
<linearGradient id="paint1_linear_1047_4642" x1="27.2461" y1="42.5622" x2="57.7229" y2="42.5622" gradientUnits="userSpaceOnUse">
<stop stop-color="#01CE87"/>
<stop offset="1" stop-color="#00BF7D"/>
</linearGradient>
<linearGradient id="paint2_linear_1047_4642" x1="8.57812" y1="28.2938" x2="13.0359" y2="28.2938" gradientUnits="userSpaceOnUse">
<stop stop-color="#01CE87"/>
<stop offset="1" stop-color="#00BF7D"/>
</linearGradient>
<linearGradient id="paint3_linear_1047_4642" x1="17.5898" y1="28.3075" x2="22.0335" y2="28.3075" gradientUnits="userSpaceOnUse">
<stop stop-color="#01CE87"/>
<stop offset="1" stop-color="#00BF7D"/>
</linearGradient>
<linearGradient id="paint4_linear_1047_4642" x1="26.6211" y1="28.2862" x2="31.0506" y2="28.2862" gradientUnits="userSpaceOnUse">
<stop stop-color="#01CE87"/>
<stop offset="1" stop-color="#00BF7D"/>
</linearGradient>
<linearGradient id="paint5_linear_1047_4642" x1="8.60547" y1="37.2733" x2="13.035" y2="37.2733" gradientUnits="userSpaceOnUse">
<stop stop-color="#01CE87"/>
<stop offset="1" stop-color="#00BF7D"/>
</linearGradient>
<linearGradient id="paint6_linear_1047_4642" x1="17.6211" y1="37.2733" x2="22.0506" y2="37.2733" gradientUnits="userSpaceOnUse">
<stop stop-color="#01CE87"/>
<stop offset="1" stop-color="#00BF7D"/>
</linearGradient>
<linearGradient id="paint7_linear_1047_4642" x1="8.62109" y1="46.2675" x2="13.0506" y2="46.2675" gradientUnits="userSpaceOnUse">
<stop stop-color="#01CE87"/>
<stop offset="1" stop-color="#00BF7D"/>
</linearGradient>
<linearGradient id="paint8_linear_1047_4642" x1="17.6055" y1="46.2675" x2="22.035" y2="46.2675" gradientUnits="userSpaceOnUse">
<stop stop-color="#01CE87"/>
<stop offset="1" stop-color="#00BF7D"/>
</linearGradient>
<linearGradient id="paint9_linear_1047_4642" x1="40.1328" y1="39.9271" x2="48.3994" y2="39.9271" gradientUnits="userSpaceOnUse">
<stop stop-color="#01CE87"/>
<stop offset="1" stop-color="#00BF7D"/>
</linearGradient>
</defs>
</svg>
