<svg width="62" height="58" viewBox="0 0 62 58" fill="none" xmlns="http://www.w3.org/2000/svg">
<path d="M0 55.2877C0 52.2642 0 49.224 0 46.2005C0.0650166 45.7995 0.113779 45.3819 0.178796 44.981C1.04027 38.6834 3.901 33.5718 8.826 29.713C9.71998 29.0114 10.6952 28.4268 11.638 27.792C11.638 27.7586 11.638 27.7085 11.6055 27.6918C11.5079 27.5749 11.4104 27.4746 11.3129 27.3744C8.38714 24.401 6.77798 20.7928 6.64795 16.5665C6.48541 11.0707 8.56594 6.54379 12.8245 3.25299C18.1721 -0.856341 24.8526 -1.00668 30.509 2.65162C30.8991 2.90219 31.1592 2.86878 31.5331 2.63492C36.8319 -0.689295 42.2445 -0.88975 47.6572 2.2173C55.9143 6.9614 57.946 18.5377 51.8833 26.0213C51.3956 26.6227 50.8592 27.1906 50.3229 27.8087C50.5667 27.9591 50.7942 28.0927 51.0055 28.243C57.0683 31.9849 60.7905 37.4306 61.717 44.6135C62.1559 48.0046 61.9446 51.4791 61.9771 54.9202C61.9771 55.8056 61.4407 56.4905 60.6117 56.7912C60.1729 56.9582 59.669 56.9916 59.1814 56.9916C40.4241 57.0083 21.683 56.9916 2.92575 57.0083C1.57665 57.025 0.552641 56.6241 0 55.2877ZM39.8552 52.3979C39.8552 50.7942 39.9039 49.2407 39.8389 47.6872C39.7902 46.5513 39.6926 45.3986 39.4651 44.2961C38.116 37.8649 34.3938 33.4716 28.5423 30.9325C28.2985 30.8322 27.9409 30.7988 27.6971 30.8824C23.9911 32.2855 20.2852 32.2855 16.5792 30.8824C16.3679 30.7988 16.0916 30.7988 15.8966 30.8657C13.7185 31.6675 11.7843 32.8869 10.1101 34.5073C6.30661 38.1823 4.43738 42.7259 4.43738 48.0881C4.43738 49.508 4.43738 50.9446 4.43738 52.3979C16.2704 52.3979 28.0222 52.3979 39.8552 52.3979ZM11.0853 16.0988C11.2316 22.8976 16.693 27.5916 22.5445 27.3577C28.8349 27.1071 33.6461 21.5779 33.191 15.1801C32.7684 9.26663 27.8596 4.42231 21.7806 4.63947C15.5227 4.85663 11.0041 10.152 11.0853 16.0988ZM34.345 6.2097C36.5068 9.09959 37.6446 12.3737 37.6446 16.0153C37.6446 19.6402 36.5068 22.931 34.3613 25.8209C39.075 28.5771 44.5851 27.6417 48.2098 23.4655C51.802 19.3395 51.8182 12.8247 48.3398 8.68197C44.5689 4.15503 38.5548 3.60378 34.345 6.2097ZM44.3088 52.3979C48.7787 52.3979 53.1511 52.3979 57.6697 52.3979C57.5722 49.9256 57.7347 47.4533 57.3446 45.0645C56.2556 38.3159 52.5334 33.5885 46.3406 30.9659C46.0155 30.8322 45.5441 30.8155 45.2028 30.9492C43.0085 31.7677 40.7492 32.0517 38.4248 31.8512C38.2785 31.8345 38.1322 31.8512 37.8884 31.8512C38.1647 32.1686 38.3435 32.3858 38.5386 32.5862C40.5379 34.8581 42.0332 37.4306 43.0247 40.3204C43.9187 42.9097 44.2763 45.5824 44.2926 48.3219C44.3251 49.6583 44.3088 51.0114 44.3088 52.3979Z" fill="url(#paint0_linear_1047_4635)"/>
<defs>
<linearGradient id="paint0_linear_1047_4635" x1="-4.61936e-07" y1="28.5088" x2="62" y2="28.5088" gradientUnits="userSpaceOnUse">
<stop stop-color="#01CE87"/>
<stop offset="1" stop-color="#00BF7D"/>
</linearGradient>
</defs>
</svg>
